<?xml version="1.0" encoding="UTF-8" standalone="no"?>
<!-- Created with Inkscape (http://www.inkscape.org/) -->

<svg
   xmlns:dc="http://purl.org/dc/elements/1.1/"
   xmlns:cc="http://creativecommons.org/ns#"
   xmlns:rdf="http://www.w3.org/1999/02/22-rdf-syntax-ns#"
   xmlns:svg="http://www.w3.org/2000/svg"
   xmlns="http://www.w3.org/2000/svg"
   xmlns:sodipodi="http://sodipodi.sourceforge.net/DTD/sodipodi-0.dtd"
   xmlns:inkscape="http://www.inkscape.org/namespaces/inkscape"
   width="4in"
   height="4in"
   viewBox="0 0 359.99999 359.99999"
   id="svg6834"
   version="1.1"
   inkscape:version="0.91 r13725"
   sodipodi:docname="L shape.svg">
  <defs
     id="defs6836" />
  <sodipodi:namedview
     id="base"
     pagecolor="#ffffff"
     bordercolor="#666666"
     borderopacity="1.0"
     inkscape:pageopacity="0.0"
     inkscape:pageshadow="2"
     inkscape:zoom="1.4"
     inkscape:cx="119.48155"
     inkscape:cy="196.75119"
     inkscape:document-units="px"
     inkscape:current-layer="layer1"
     showgrid="false"
     units="in"
     inkscape:window-width="1280"
     inkscape:window-height="751"
     inkscape:window-x="0"
     inkscape:window-y="1"
     inkscape:window-maximized="1" />
  <metadata
     id="metadata6839">
    <rdf:RDF>
      <cc:Work
         rdf:about="">
        <dc:format>image/svg+xml</dc:format>
        <dc:type
           rdf:resource="http://purl.org/dc/dcmitype/StillImage" />
        <dc:title></dc:title>
      </cc:Work>
    </rdf:RDF>
  </metadata>
  <g
     inkscape:label="Layer 1"
     inkscape:groupmode="layer"
     id="layer1"
     transform="translate(0,-692.36223)">
    <path
       style="fill:#000000;fill-opacity:0;stroke:#ff0000;stroke-width:1.13977885;stroke-miterlimit:4;stroke-dasharray:none;stroke-opacity:1"
       d="M 0.5703125 0.5703125 L 0.5703125 292.91406 L 0.4140625 292.91406 L 0.4140625 359.58594 L 359.58594 359.58594 L 359.58594 292.91406 L 66.929688 292.91406 L 66.929688 0.5703125 L 0.5703125 0.5703125 z "
       transform="translate(0,692.36223)"
       id="rect7382" />
    <path
       style="fill:#000000;fill-opacity:0;stroke:#ff0000;stroke-width:0.87924391;stroke-miterlimit:4;stroke-dasharray:none;stroke-opacity:1"
       d="M 44.560378,726.11224 A 10.810378,10.810378 0 0 1 33.75,736.92262 10.810378,10.810378 0 0 1 22.939622,726.11224 10.810378,10.810378 0 0 1 33.75,715.30187 10.810378,10.810378 0 0 1 44.560378,726.11224 Z"
       id="path7386" />
    <path
       style="fill:#000000;fill-opacity:0;stroke:#ff0000;stroke-width:0.67350721;stroke-miterlimit:4;stroke-dasharray:none;stroke-opacity:1"
       d="M 44.663246,928.61224 A 10.913246,10.913246 0 0 1 33.75,939.52549 10.913246,10.913246 0 0 1 22.836754,928.61224 10.913246,10.913246 0 0 1 33.75,917.699 10.913246,10.913246 0 0 1 44.663246,928.61224 Z"
       id="path7390" />
    <path
       style="fill:#000000;fill-opacity:0;stroke:#ff0000;stroke-width:0.92745364;stroke-miterlimit:4;stroke-dasharray:none;stroke-opacity:1"
       d="m 134.53627,1018.6122 a 10.786273,10.786273 0 0 1 -10.78627,10.7863 10.786273,10.786273 0 0 1 -10.78627,-10.7863 10.786273,10.786273 0 0 1 10.78627,-10.7863 10.786273,10.786273 0 0 1 10.78627,10.7863 z"
       id="path7393" />
    <path
       style="fill:#000000;fill-opacity:0;stroke:#ff0000;stroke-width:0.87924391;stroke-miterlimit:4;stroke-dasharray:none;stroke-opacity:1"
       d="m 337.06038,1018.6122 a 10.810378,10.810378 0 0 1 -10.81038,10.8104 10.810378,10.810378 0 0 1 -10.81038,-10.8104 10.810378,10.810378 0 0 1 10.81038,-10.8104 10.810378,10.810378 0 0 1 10.81038,10.8104 z"
       id="path7395" />
  </g>
</svg>
