<?xml version="1.0" encoding="UTF-8" standalone="no"?>
<!-- Created with Inkscape (http://www.inkscape.org/) -->

<svg
   xmlns:dc="http://purl.org/dc/elements/1.1/"
   xmlns:cc="http://creativecommons.org/ns#"
   xmlns:rdf="http://www.w3.org/1999/02/22-rdf-syntax-ns#"
   xmlns:svg="http://www.w3.org/2000/svg"
   xmlns="http://www.w3.org/2000/svg"
   xmlns:sodipodi="http://sodipodi.sourceforge.net/DTD/sodipodi-0.dtd"
   xmlns:inkscape="http://www.inkscape.org/namespaces/inkscape"
   width="24in"
   height="48in"
   viewBox="0 0 2160.0001 4320.0001"
   id="svg2"
   version="1.1"
   inkscape:version="0.91 r13725"
   sodipodi:docname="layer_mirror.svg">
  <defs
     id="defs4" />
  <sodipodi:namedview
     id="base"
     pagecolor="#ffffff"
     bordercolor="#666666"
     borderopacity="1.0"
     inkscape:pageopacity="0.0"
     inkscape:pageshadow="2"
     inkscape:zoom="0.24748738"
     inkscape:cx="86.690703"
     inkscape:cy="2131.9916"
     inkscape:document-units="px"
     inkscape:current-layer="g7556"
     showgrid="false"
     units="in"
     inkscape:window-width="1280"
     inkscape:window-height="751"
     inkscape:window-x="21"
     inkscape:window-y="44"
     inkscape:window-maximized="0"
     showguides="true" />
  <metadata
     id="metadata7">
    <rdf:RDF>
      <cc:Work
         rdf:about="">
        <dc:format>image/svg+xml</dc:format>
        <dc:type
           rdf:resource="http://purl.org/dc/dcmitype/StillImage" />
        <dc:title />
      </cc:Work>
    </rdf:RDF>
  </metadata>
  <g
     inkscape:groupmode="layer"
     id="layer4"
     inkscape:label="Mirror Layer"
     style="display:inline"
     transform="translate(0,1080)"
     sodipodi:insensitive="true">
    <rect
       style="color:#000000;clip-rule:nonzero;display:inline;overflow:visible;visibility:visible;opacity:1;isolation:auto;mix-blend-mode:normal;color-interpolation:sRGB;color-interpolation-filters:linearRGB;solid-color:#000000;solid-opacity:1;fill:none;fill-opacity:1;fill-rule:nonzero;stroke:#ff0000;stroke-width:0.82761365;stroke-linecap:butt;stroke-linejoin:miter;stroke-miterlimit:4;stroke-dasharray:none;stroke-dashoffset:0;stroke-opacity:1;color-rendering:auto;image-rendering:auto;shape-rendering:auto;text-rendering:auto;enable-background:accumulate"
       id="rect4208"
       width="1619.1724"
       height="2159.1724"
       x="135.4138"
       y="697.9137" />
    <rect
       style="color:#000000;clip-rule:nonzero;display:inline;overflow:visible;visibility:visible;opacity:1;isolation:auto;mix-blend-mode:normal;color-interpolation:sRGB;color-interpolation-filters:linearRGB;solid-color:#000000;solid-opacity:1;fill:none;fill-opacity:1;fill-rule:nonzero;stroke:#ff0000;stroke-width:0.86858392;stroke-linecap:butt;stroke-linejoin:miter;stroke-miterlimit:4;stroke-dasharray:none;stroke-dashoffset:0;stroke-opacity:1;color-rendering:auto;image-rendering:auto;shape-rendering:auto;text-rendering:auto;enable-background:accumulate"
       id="rect4229"
       width="1889.1315"
       height="2699.1313"
       x="0.43429196"
       y="427.9342" />
  </g>
  <g
     style="display:inline"
     inkscape:label="drill_layer_holes"
     id="g7556"
     inkscape:groupmode="layer"
     sodipodi:insensitive="true">
    <g
       style="fill:#000000;stroke:#000000;stroke-opacity:1"
       inkscape:label="Layer 1"
       id="g7558"
       transform="translate(112.49959,3267.6372)">
      <path
         style="fill:#000000;fill-opacity:0;stroke:#000000;stroke-width:1.07016051;stroke-miterlimit:4;stroke-dasharray:none;stroke-opacity:1"
         d="M 50.089918,872.36218 A 10.714919,10.71492 0 0 1 39.374999,883.0771 10.714919,10.71492 0 0 1 28.66008,872.36218 10.714919,10.71492 0 0 1 39.374999,861.64726 10.714919,10.71492 0 0 1 50.089918,872.36218 Z"
         id="path7562"
         inkscape:connector-curvature="0" />
      <path
         style="fill:#000000;fill-opacity:0;stroke:#000000;stroke-width:0.84179449;stroke-miterlimit:4;stroke-dasharray:none;stroke-opacity:1"
         d="m 202.0791,872.94116 a 10.829103,10.829103 0 0 1 -10.8291,10.82911 10.829103,10.829103 0 0 1 -10.8291,-10.82911 10.829103,10.829103 0 0 1 10.8291,-10.8291 10.829103,10.829103 0 0 1 10.8291,10.8291 z"
         id="path7564"
         inkscape:connector-curvature="0" />
      <path
         style="fill:#000000;fill-opacity:0;stroke:#000000;stroke-width:0.79782397;stroke-miterlimit:4;stroke-dasharray:none;stroke-opacity:1"
         d="M 337.10109,872.36218 A 10.851088,10.851088 0 0 1 326.25,883.21327 10.851088,10.851088 0 0 1 315.39891,872.36218 10.851088,10.851088 0 0 1 326.25,861.5111 a 10.851088,10.851088 0 0 1 10.85109,10.85108 z"
         id="path7566"
         inkscape:connector-curvature="0" />
      <path
         style="fill:#000000;fill-opacity:0;stroke:#000000;stroke-width:0.606103;stroke-miterlimit:4;stroke-dasharray:none;stroke-opacity:1"
         d="M 44.696949,726.11218 A 10.946949,10.946948 0 0 1 33.75,737.05913 10.946949,10.946948 0 0 1 22.803051,726.11218 10.946949,10.946948 0 0 1 33.75,715.16523 10.946949,10.946948 0 0 1 44.696949,726.11218 Z"
         id="path7568"
         inkscape:connector-curvature="0" />
    </g>
    <g
       style="fill:#000000;stroke:#000000;stroke-opacity:1"
       inkscape:label="Layer 1"
       id="g7572"
       transform="matrix(-1,0,0,-1,1778.1832,5011.561)">
      <path
         style="fill:#000000;fill-opacity:0;stroke:#000000;stroke-width:1.07016051;stroke-miterlimit:4;stroke-dasharray:none;stroke-opacity:1"
         d="M 50.089918,872.36218 A 10.714919,10.71492 0 0 1 39.374999,883.0771 10.714919,10.71492 0 0 1 28.66008,872.36218 10.714919,10.71492 0 0 1 39.374999,861.64726 10.714919,10.71492 0 0 1 50.089918,872.36218 Z"
         id="path7576"
         inkscape:connector-curvature="0" />
      <path
         style="fill:#000000;fill-opacity:0;stroke:#000000;stroke-width:0.84179449;stroke-miterlimit:4;stroke-dasharray:none;stroke-opacity:1"
         d="m 202.0791,872.94116 a 10.829103,10.829103 0 0 1 -10.8291,10.82911 10.829103,10.829103 0 0 1 -10.8291,-10.82911 10.829103,10.829103 0 0 1 10.8291,-10.8291 10.829103,10.829103 0 0 1 10.8291,10.8291 z"
         id="path7578"
         inkscape:connector-curvature="0" />
      <path
         style="fill:#000000;fill-opacity:0;stroke:#000000;stroke-width:0.79782397;stroke-miterlimit:4;stroke-dasharray:none;stroke-opacity:1"
         d="M 337.10109,872.36218 A 10.851088,10.851088 0 0 1 326.25,883.21327 10.851088,10.851088 0 0 1 315.39891,872.36218 10.851088,10.851088 0 0 1 326.25,861.5111 a 10.851088,10.851088 0 0 1 10.85109,10.85108 z"
         id="path7580"
         inkscape:connector-curvature="0" />
      <path
         style="fill:#000000;fill-opacity:0;stroke:#000000;stroke-width:1.73515296;stroke-miterlimit:4;stroke-dasharray:none;stroke-opacity:1"
         d="M 44.132423,1018.6122 A 10.382423,10.382423 0 0 1 33.75,1028.9946 10.382423,10.382423 0 0 1 23.367577,1018.6122 10.382423,10.382423 0 0 1 33.75,1008.2298 a 10.382423,10.382423 0 0 1 10.382423,10.3824 z"
         id="path7584"
         inkscape:connector-curvature="0" />
    </g>
    <g
       style="fill:#000000;stroke:#000000;stroke-opacity:1"
       inkscape:label="Layer 1"
       id="g7586"
       transform="matrix(0,1,-1,0,1097.5181,1597.3442)">
      <path
         inkscape:connector-curvature="0"
         style="fill:#000000;fill-opacity:0;stroke:#000000;stroke-width:0.87924391;stroke-miterlimit:4;stroke-dasharray:none;stroke-opacity:1"
         d="M 44.560378,726.11224 A 10.810378,10.810378 0 0 1 33.75,736.92262 10.810378,10.810378 0 0 1 22.939622,726.11224 10.810378,10.810378 0 0 1 33.75,715.30187 10.810378,10.810378 0 0 1 44.560378,726.11224 Z"
         id="path7590" />
      <path
         inkscape:connector-curvature="0"
         style="fill:#000000;fill-opacity:0;stroke:#000000;stroke-width:0.67350721;stroke-miterlimit:4;stroke-dasharray:none;stroke-opacity:1"
         d="M 44.663246,928.61224 A 10.913246,10.913246 0 0 1 33.75,939.52549 10.913246,10.913246 0 0 1 22.836754,928.61224 10.913246,10.913246 0 0 1 33.75,917.699 10.913246,10.913246 0 0 1 44.663246,928.61224 Z"
         id="path7592" />
      <path
         inkscape:connector-curvature="0"
         style="fill:#000000;fill-opacity:0;stroke:#000000;stroke-width:0.92745364;stroke-miterlimit:4;stroke-dasharray:none;stroke-opacity:1"
         d="m 134.53627,1018.6122 a 10.786273,10.786273 0 0 1 -10.78627,10.7863 10.786273,10.786273 0 0 1 -10.78627,-10.7863 10.786273,10.786273 0 0 1 10.78627,-10.7863 10.786273,10.786273 0 0 1 10.78627,10.7863 z"
         id="path7594" />
      <path
         inkscape:connector-curvature="0"
         style="fill:#000000;fill-opacity:0;stroke:#000000;stroke-width:0.87924391;stroke-miterlimit:4;stroke-dasharray:none;stroke-opacity:1"
         d="m 337.06038,1018.6122 a 10.810378,10.810378 0 0 1 -10.81038,10.8104 10.810378,10.810378 0 0 1 -10.81038,-10.8104 10.810378,10.810378 0 0 1 10.81038,-10.8104 10.810378,10.810378 0 0 1 10.81038,10.8104 z"
         id="path7596" />
    </g>
    <g
       style="fill:#000000;stroke:#000000;stroke-opacity:1"
       inkscape:label="Layer 1"
       id="g7598"
       transform="matrix(-1,0,0,-1,1845.1558,2649.8627)">
      <path
         inkscape:connector-curvature="0"
         style="fill:#000000;fill-opacity:0;stroke:#000000;stroke-width:0.87924391;stroke-miterlimit:4;stroke-dasharray:none;stroke-opacity:1"
         d="M 44.560378,726.11224 A 10.810378,10.810378 0 0 1 33.75,736.92262 10.810378,10.810378 0 0 1 22.939622,726.11224 10.810378,10.810378 0 0 1 33.75,715.30187 10.810378,10.810378 0 0 1 44.560378,726.11224 Z"
         id="path7602" />
      <path
         inkscape:connector-curvature="0"
         style="fill:#000000;fill-opacity:0;stroke:#000000;stroke-width:0.67350721;stroke-miterlimit:4;stroke-dasharray:none;stroke-opacity:1"
         d="M 44.663246,928.61224 A 10.913246,10.913246 0 0 1 33.75,939.52549 10.913246,10.913246 0 0 1 22.836754,928.61224 10.913246,10.913246 0 0 1 33.75,917.699 10.913246,10.913246 0 0 1 44.663246,928.61224 Z"
         id="path7604" />
      <path
         inkscape:connector-curvature="0"
         style="fill:#000000;fill-opacity:0;stroke:#000000;stroke-width:0.92745364;stroke-miterlimit:4;stroke-dasharray:none;stroke-opacity:1"
         d="m 134.53627,1018.6122 a 10.786273,10.786273 0 0 1 -10.78627,10.7863 10.786273,10.786273 0 0 1 -10.78627,-10.7863 10.786273,10.786273 0 0 1 10.78627,-10.7863 10.786273,10.786273 0 0 1 10.78627,10.7863 z"
         id="path7606" />
      <path
         inkscape:connector-curvature="0"
         style="fill:#000000;fill-opacity:0;stroke:#000000;stroke-width:0.87924391;stroke-miterlimit:4;stroke-dasharray:none;stroke-opacity:1"
         d="m 337.06038,1018.6122 a 10.810378,10.810378 0 0 1 -10.81038,10.8104 10.810378,10.810378 0 0 1 -10.81038,-10.8104 10.810378,10.810378 0 0 1 10.81038,-10.8104 10.810378,10.810378 0 0 1 10.81038,10.8104 z"
         id="path7608" />
    </g>
  </g>
</svg>
