<?xml version="1.0" encoding="UTF-8" standalone="no"?>
<!-- Created with Inkscape (http://www.inkscape.org/) -->

<svg
   xmlns:dc="http://purl.org/dc/elements/1.1/"
   xmlns:cc="http://creativecommons.org/ns#"
   xmlns:rdf="http://www.w3.org/1999/02/22-rdf-syntax-ns#"
   xmlns:svg="http://www.w3.org/2000/svg"
   xmlns="http://www.w3.org/2000/svg"
   xmlns:sodipodi="http://sodipodi.sourceforge.net/DTD/sodipodi-0.dtd"
   xmlns:inkscape="http://www.inkscape.org/namespaces/inkscape"
   width="24in"
   height="48in"
   viewBox="0 0 2160.0001 4320.0001"
   id="svg2"
   version="1.1"
   inkscape:version="0.91 r13725"
   sodipodi:docname="layer_decorative_middle.svg">
  <defs
     id="defs4" />
  <sodipodi:namedview
     id="base"
     pagecolor="#ffffff"
     bordercolor="#666666"
     borderopacity="1.0"
     inkscape:pageopacity="0.0"
     inkscape:pageshadow="2"
     inkscape:zoom="0.20851852"
     inkscape:cx="420.99929"
     inkscape:cy="1696.8821"
     inkscape:document-units="px"
     inkscape:current-layer="g3523"
     showgrid="false"
     units="in"
     inkscape:window-width="1280"
     inkscape:window-height="751"
     inkscape:window-x="1"
     inkscape:window-y="1"
     inkscape:window-maximized="0"
     showguides="true" />
  <metadata
     id="metadata7">
    <rdf:RDF>
      <cc:Work
         rdf:about="">
        <dc:format>image/svg+xml</dc:format>
        <dc:type
           rdf:resource="http://purl.org/dc/dcmitype/StillImage" />
        <dc:title />
      </cc:Work>
    </rdf:RDF>
  </metadata>
  <g
     inkscape:groupmode="layer"
     id="g3523"
     inkscape:label="Echo Decorative Front Middle"
     style="display:inline"
     transform="translate(0,1080)"
     sodipodi:insensitive="true">
    <rect
       style="color:#000000;clip-rule:nonzero;display:inline;overflow:visible;visibility:visible;opacity:1;isolation:auto;mix-blend-mode:normal;color-interpolation:sRGB;color-interpolation-filters:linearRGB;solid-color:#000000;solid-opacity:1;fill:#000000;fill-opacity:0;fill-rule:nonzero;stroke:#ff007c;stroke-width:1.53547239;stroke-linecap:butt;stroke-linejoin:miter;stroke-miterlimit:4;stroke-dasharray:none;stroke-dashoffset:0;stroke-opacity:1;color-rendering:auto;image-rendering:auto;shape-rendering:auto;text-rendering:auto;enable-background:accumulate"
       id="rect3525"
       width="1978.4645"
       height="2788.4646"
       x="-44.232265"
       y="383.26767" />
    <path
       style="fill:#000000;fill-opacity:0;stroke:#ff007c;stroke-width:0.85011041;stroke-miterlimit:4;stroke-dasharray:none;stroke-opacity:1"
       d="m 152.25505,641.67529 1585.39995,0 0,2305.39971 -1585.39995,0 z"
       id="rect3527"
       inkscape:connector-curvature="0" />
  </g>
  <g
     inkscape:groupmode="layer"
     id="g3444"
     inkscape:label="Echo Middle Decorative Holes"
     style="display:inline"
     transform="translate(0,1080)"
     sodipodi:insensitive="true">
    <path
       inkscape:connector-curvature="0"
       id="path3450"
       d="M 95.460564,843.66001 A 16.440564,16.440567 0 0 1 79.02,860.10057 16.440564,16.440567 0 0 1 62.579436,843.66001 16.440564,16.440567 0 0 1 79.02,827.21944 16.440564,16.440567 0 0 1 95.460564,843.66001 Z"
       style="fill:#000000;fill-opacity:0;stroke:#000000;stroke-width:0.86887193;stroke-miterlimit:4;stroke-dasharray:none;stroke-opacity:1" />
    <path
       inkscape:connector-curvature="0"
       id="path3452"
       d="M 95.630321,641.16001 A 16.610322,16.610318 0 0 1 79.020002,657.77033 16.610322,16.610318 0 0 1 62.40968,641.16001 16.610322,16.610318 0 0 1 79.020002,624.54969 16.610322,16.610318 0 0 1 95.630321,641.16001 Z"
       style="fill:#000000;fill-opacity:0;stroke:#000000;stroke-width:0.5293594;stroke-miterlimit:4;stroke-dasharray:none;stroke-opacity:1" />
    <path
       inkscape:connector-curvature="0"
       id="path3454"
       d="m 191.186,551.11501 a 22.211007,22.211003 0 0 1 -22.211,22.211 22.211007,22.211003 0 0 1 -22.21101,-22.211 22.211007,22.211003 0 0 1 22.21101,-22.21101 22.211007,22.211003 0 0 1 22.211,22.21101 z"
       style="fill:#000000;fill-opacity:0;stroke:#000000;stroke-width:0.57799554;stroke-miterlimit:4;stroke-dasharray:none;stroke-opacity:1" />
    <path
       inkscape:connector-curvature="0"
       id="path3456"
       d="M 393.68124,551.11501 A 22.20624,22.206237 0 0 1 371.475,573.32124 22.20624,22.206237 0 0 1 349.26876,551.11501 22.20624,22.206237 0 0 1 371.475,528.90876 22.20624,22.206237 0 0 1 393.68124,551.11501 Z"
       style="fill:#000000;fill-opacity:0;stroke:#000000;stroke-width:0.58752662;stroke-miterlimit:4;stroke-dasharray:none;stroke-opacity:1" />
    <path
       inkscape:connector-curvature="0"
       id="path3458"
       d="m 1541.149,551.295 a 22.173956,22.173974 0 0 1 -22.1739,22.17398 22.173956,22.173974 0 0 1 -22.174,-22.17398 22.173956,22.173974 0 0 1 22.174,-22.17397 22.173956,22.173974 0 0 1 22.1739,22.17397 z"
       style="fill:#000000;fill-opacity:0;stroke:#000000;stroke-width:0.65205032;stroke-miterlimit:4;stroke-dasharray:none;stroke-opacity:1" />
    <path
       inkscape:connector-curvature="0"
       id="path3460"
       d="m 1743.6545,551.295 a 22.179483,22.179466 0 0 1 -22.1794,22.17947 22.179483,22.179466 0 0 1 -22.1795,-22.17947 22.179483,22.179466 0 0 1 22.1795,-22.17946 22.179483,22.179466 0 0 1 22.1794,22.17946 z"
       style="fill:#000000;fill-opacity:0;stroke:#000000;stroke-width:0.6410625;stroke-miterlimit:4;stroke-dasharray:none;stroke-opacity:1" />
    <path
       inkscape:connector-curvature="0"
       id="path3462"
       d="m 1828.1507,641.295 a 16.630668,16.63069 0 0 1 -16.6306,16.63069 16.630668,16.63069 0 0 1 -16.6308,-16.63069 16.630668,16.63069 0 0 1 16.6308,-16.63069 16.630668,16.63069 0 0 1 16.6306,16.63069 z"
       style="fill:#000000;fill-opacity:0;stroke:#000000;stroke-width:0.48862374;stroke-miterlimit:4;stroke-dasharray:none;stroke-opacity:1" />
    <path
       inkscape:connector-curvature="0"
       id="path3464"
       d="m 1828.1316,843.84001 a 16.611485,16.611418 0 0 1 -16.6114,16.61141 16.611485,16.611418 0 0 1 -16.6114,-16.61141 16.611485,16.611418 0 0 1 16.6114,-16.61143 16.611485,16.611418 0 0 1 16.6114,16.61143 z"
       style="fill:#000000;fill-opacity:0;stroke:#000000;stroke-width:0.5271638;stroke-miterlimit:4;stroke-dasharray:none;stroke-opacity:1" />
    <path
       inkscape:connector-curvature="0"
       id="path3466"
       d="m 1766.6056,3059.1902 a 27.805544,27.805542 0 0 1 -27.8056,27.8055 27.805544,27.805542 0 0 1 -27.8055,-27.8055 27.805544,27.805542 0 0 1 27.8055,-27.8056 27.805544,27.805542 0 0 1 27.8056,27.8056 z"
       style="fill:#000000;fill-opacity:0;stroke:#000000;stroke-width:0.63891423;stroke-miterlimit:4;stroke-dasharray:none;stroke-opacity:1" />
    <path
       inkscape:connector-curvature="0"
       id="path3468"
       d="m 1614.7579,3058.6499 a 27.787889,27.787889 0 0 1 -27.7879,27.7879 27.787889,27.787889 0 0 1 -27.7879,-27.7879 27.787889,27.787889 0 0 1 27.7879,-27.7879 27.787889,27.787889 0 0 1 27.7879,27.7879 z"
       style="fill:#000000;fill-opacity:0;stroke:#000000;stroke-width:0.67422038;stroke-miterlimit:4;stroke-dasharray:none;stroke-opacity:1" />
    <path
       inkscape:connector-curvature="0"
       id="path3470"
       d="m 1479.7453,3059.1899 a 27.775322,27.775322 0 0 1 -27.7753,27.7754 27.775322,27.775322 0 0 1 -27.7754,-27.7754 27.775322,27.775322 0 0 1 27.7754,-27.7753 27.775322,27.775322 0 0 1 27.7753,27.7753 z"
       style="fill:#000000;fill-opacity:0;stroke:#000000;stroke-width:0.69935513;stroke-miterlimit:4;stroke-dasharray:none;stroke-opacity:1" />
    <path
       inkscape:connector-curvature="0"
       id="path3472"
       d="M 466.47479,3060 A 27.724794,27.724794 0 0 1 438.75,3087.7248 27.724794,27.724794 0 0 1 411.02521,3060 27.724794,27.724794 0 0 1 438.75,3032.2752 27.724794,27.724794 0 0 1 466.47479,3060 Z"
       style="fill:#000000;fill-opacity:0;stroke:#000000;stroke-width:0.80041075;stroke-miterlimit:4;stroke-dasharray:none;stroke-opacity:1" />
    <path
       inkscape:connector-curvature="0"
       id="path3474"
       d="M 331.43387,3060.54 A 27.683868,27.683867 0 0 1 303.75,3088.2239 27.683868,27.683867 0 0 1 276.06613,3060.54 27.683868,27.683867 0 0 1 303.75,3032.8562 27.683868,27.683867 0 0 1 331.43387,3060.54 Z"
       style="fill:#000000;fill-opacity:0;stroke:#000000;stroke-width:0.88226575;stroke-miterlimit:4;stroke-dasharray:none;stroke-opacity:1" />
    <path
       inkscape:connector-curvature="0"
       id="path3476"
       d="M 180.71923,3060 A 27.73571,27.735708 0 0 1 152.98352,3087.7357 27.73571,27.735708 0 0 1 125.24781,3060 27.73571,27.735708 0 0 1 152.98352,3032.2643 27.73571,27.735708 0 0 1 180.71923,3060 Z"
       style="fill:#000000;fill-opacity:0;stroke:#000000;stroke-width:0.77858168;stroke-miterlimit:4;stroke-dasharray:none;stroke-opacity:1" />
  </g>
</svg>
