<?xml version="1.0" encoding="UTF-8" standalone="no"?>
<!-- Created with Inkscape (http://www.inkscape.org/) -->

<svg
   xmlns:dc="http://purl.org/dc/elements/1.1/"
   xmlns:cc="http://creativecommons.org/ns#"
   xmlns:rdf="http://www.w3.org/1999/02/22-rdf-syntax-ns#"
   xmlns:svg="http://www.w3.org/2000/svg"
   xmlns="http://www.w3.org/2000/svg"
   xmlns:sodipodi="http://sodipodi.sourceforge.net/DTD/sodipodi-0.dtd"
   xmlns:inkscape="http://www.inkscape.org/namespaces/inkscape"
   width="24in"
   height="48in"
   viewBox="0 0 2160.0001 4320.0001"
   id="svg2"
   version="1.1"
   inkscape:version="0.91 r13725"
   sodipodi:docname="layer_decorative_innermost.svg">
  <defs
     id="defs4" />
  <sodipodi:namedview
     id="base"
     pagecolor="#ffffff"
     bordercolor="#666666"
     borderopacity="1.0"
     inkscape:pageopacity="0.0"
     inkscape:pageshadow="2"
     inkscape:zoom="0.41703704"
     inkscape:cx="1058.8323"
     inkscape:cy="2368.2853"
     inkscape:document-units="px"
     inkscape:current-layer="g4358"
     showgrid="false"
     units="in"
     inkscape:window-width="1280"
     inkscape:window-height="751"
     inkscape:window-x="1"
     inkscape:window-y="1"
     inkscape:window-maximized="0"
     showguides="true" />
  <metadata
     id="metadata7">
    <rdf:RDF>
      <cc:Work
         rdf:about="">
        <dc:format>image/svg+xml</dc:format>
        <dc:type
           rdf:resource="http://purl.org/dc/dcmitype/StillImage" />
        <dc:title />
      </cc:Work>
    </rdf:RDF>
  </metadata>
  <g
     transform="translate(0,1080)"
     style="display:inline"
     inkscape:label="Echo Decorative Front Innermost"
     id="g3517"
     inkscape:groupmode="layer"
     sodipodi:insensitive="true">
    <rect
       y="338.29767"
       x="-89.202446"
       height="2878.4048"
       width="2068.4048"
       id="rect3519"
       style="color:#000000;clip-rule:nonzero;display:inline;overflow:visible;visibility:visible;opacity:1;isolation:auto;mix-blend-mode:normal;color-interpolation:sRGB;color-interpolation-filters:linearRGB;solid-color:#000000;solid-opacity:1;fill:#554400;fill-opacity:0;fill-rule:nonzero;stroke:#ff0000;stroke-width:1.59510422;stroke-linecap:butt;stroke-linejoin:miter;stroke-miterlimit:4;stroke-dasharray:none;stroke-dashoffset:0;stroke-opacity:1;color-rendering:auto;image-rendering:auto;shape-rendering:auto;text-rendering:auto;enable-background:accumulate" />
    <path
       style="fill:#554400;fill-opacity:0;stroke:#ff0000;stroke-width:0.80937064;stroke-miterlimit:4;stroke-dasharray:none;stroke-opacity:1"
       d="m 197.23468,686.65466 1495.44072,0 0,2215.44064 -1495.44072,0 z"
       id="rect3521"
       inkscape:connector-curvature="0" />
  </g>
  <g
     inkscape:groupmode="layer"
     id="g4358"
     inkscape:label="Echo Innermost Decorative Holes"
     style="display:inline"
     sodipodi:insensitive="true">
    <path
       style="fill:#000000;fill-opacity:0;stroke:#000000;stroke-width:1.60524344;stroke-miterlimit:4;stroke-dasharray:none;stroke-opacity:1"
       d="m 167.90238,4139.9611 a 16.072377,16.072436 0 0 1 -16.07238,16.0723 16.072377,16.072436 0 0 1 -16.07238,-16.0723 16.072377,16.072436 0 0 1 16.07238,-16.0724 16.072377,16.072436 0 0 1 16.07238,16.0724 z"
       id="path4360"
       inkscape:connector-curvature="0" />
    <path
       style="fill:#000000;fill-opacity:0;stroke:#000000;stroke-width:1.26269197;stroke-miterlimit:4;stroke-dasharray:none;stroke-opacity:1"
       d="m 319.94866,4140.5401 a 16.243656,16.243659 0 0 1 -16.24366,16.2436 16.243656,16.243659 0 0 1 -16.24365,-16.2436 16.243656,16.243659 0 0 1 16.24365,-16.2436 16.243656,16.243659 0 0 1 16.24366,16.2436 z"
       id="path4362"
       inkscape:connector-curvature="0" />
    <path
       style="fill:#000000;fill-opacity:0;stroke:#000000;stroke-width:1.19673467;stroke-miterlimit:4;stroke-dasharray:none;stroke-opacity:1"
       d="m 454.9816,4139.9611 a 16.276615,16.276615 0 0 1 -16.27662,16.2766 16.276615,16.276615 0 0 1 -16.27661,-16.2766 16.276615,16.276615 0 0 1 16.27661,-16.2766 16.276615,16.276615 0 0 1 16.27662,16.2766 z"
       id="path4364"
       inkscape:connector-curvature="0" />
    <path
       style="fill:#000000;fill-opacity:0;stroke:#000000;stroke-width:1.60524356;stroke-miterlimit:4;stroke-dasharray:none;stroke-opacity:1"
       d="m 1722.6912,4139.1605 a 16.072407,16.072408 0 0 1 16.0724,-16.0724 16.072407,16.072408 0 0 1 16.0724,16.0724 16.072407,16.072408 0 0 1 -16.0724,16.0724 16.072407,16.072408 0 0 1 -16.0724,-16.0724 z"
       id="path4368"
       inkscape:connector-curvature="0" />
    <path
       style="fill:#000000;fill-opacity:0;stroke:#000000;stroke-width:1.26269209;stroke-miterlimit:4;stroke-dasharray:none;stroke-opacity:1"
       d="m 1570.6449,4138.5815 a 16.243658,16.243658 0 0 1 16.2437,-16.2437 16.243658,16.243658 0 0 1 16.2437,16.2437 16.243658,16.243658 0 0 1 -16.2437,16.2437 16.243658,16.243658 0 0 1 -16.2437,-16.2437 z"
       id="path4370"
       inkscape:connector-curvature="0" />
    <path
       style="fill:#000000;fill-opacity:0;stroke:#000000;stroke-width:1.19673467;stroke-miterlimit:4;stroke-dasharray:none;stroke-opacity:1"
       d="m 1435.612,4139.1605 a 16.276615,16.276615 0 0 1 16.2766,-16.2766 16.276615,16.276615 0 0 1 16.2766,16.2766 16.276615,16.276615 0 0 1 -16.2766,16.2766 16.276615,16.276615 0 0 1 -16.2766,-16.2766 z"
       id="path4372"
       inkscape:connector-curvature="0" />
    <path
       inkscape:connector-curvature="0"
       style="fill:#000000;fill-opacity:0;stroke:#000000;stroke-width:0.87924391;stroke-miterlimit:4;stroke-dasharray:none;stroke-opacity:1"
       d="m 371.40586,1641.9046 a 10.810378,10.810378 0 0 1 -10.81038,-10.8104 10.810378,10.810378 0 0 1 10.81038,-10.8104 10.810378,10.810378 0 0 1 10.81037,10.8104 10.810378,10.810378 0 0 1 -10.81037,10.8104 z"
       id="path4376" />
    <path
       inkscape:connector-curvature="0"
       style="fill:#000000;fill-opacity:0;stroke:#000000;stroke-width:0.67350721;stroke-miterlimit:4;stroke-dasharray:none;stroke-opacity:1"
       d="m 168.90586,1642.0074 a 10.913246,10.913246 0 0 1 -10.91325,-10.9132 10.913246,10.913246 0 0 1 10.91325,-10.9132 10.913246,10.913246 0 0 1 10.91324,10.9132 10.913246,10.913246 0 0 1 -10.91324,10.9132 z"
       id="path4378" />
    <path
       inkscape:connector-curvature="0"
       style="fill:#000000;fill-opacity:0;stroke:#000000;stroke-width:0.92745364;stroke-miterlimit:4;stroke-dasharray:none;stroke-opacity:1"
       d="m 78.9059,1731.8805 a 10.786273,10.786273 0 0 1 -10.7863,-10.7863 10.786273,10.786273 0 0 1 10.7863,-10.7863 10.786273,10.786273 0 0 1 10.7863,10.7863 10.786273,10.786273 0 0 1 -10.7863,10.7863 z"
       id="path4380" />
    <path
       inkscape:connector-curvature="0"
       style="fill:#000000;fill-opacity:0;stroke:#000000;stroke-width:0.87924391;stroke-miterlimit:4;stroke-dasharray:none;stroke-opacity:1"
       d="m 78.9059,1934.4046 a 10.810378,10.810378 0 0 1 -10.8104,-10.8104 10.810378,10.810378 0 0 1 10.8104,-10.8104 10.810378,10.810378 0 0 1 10.8104,10.8104 10.810378,10.810378 0 0 1 -10.8104,10.8104 z"
       id="path4382" />
    <path
       inkscape:connector-curvature="0"
       style="fill:#000000;fill-opacity:0;stroke:#000000;stroke-width:0.87924391;stroke-miterlimit:4;stroke-dasharray:none;stroke-opacity:1"
       d="m 1800.5954,1923.7505 a 10.810378,10.810378 0 0 1 10.8104,-10.8104 10.810378,10.810378 0 0 1 10.8104,10.8104 10.810378,10.810378 0 0 1 -10.8104,10.8103 10.810378,10.810378 0 0 1 -10.8104,-10.8103 z"
       id="path4384" />
    <path
       inkscape:connector-curvature="0"
       style="fill:#000000;fill-opacity:0;stroke:#000000;stroke-width:0.67350721;stroke-miterlimit:4;stroke-dasharray:none;stroke-opacity:1"
       d="m 1800.4926,1721.2505 a 10.913246,10.913246 0 0 1 10.9132,-10.9133 10.913246,10.913246 0 0 1 10.9132,10.9133 10.913246,10.913246 0 0 1 -10.9132,10.9132 10.913246,10.913246 0 0 1 -10.9132,-10.9132 z"
       id="path4386" />
    <path
       inkscape:connector-curvature="0"
       style="fill:#000000;fill-opacity:0;stroke:#000000;stroke-width:0.92745364;stroke-miterlimit:4;stroke-dasharray:none;stroke-opacity:1"
       d="m 1710.6195,1631.2505 a 10.786273,10.786273 0 0 1 10.7863,-10.7863 10.786273,10.786273 0 0 1 10.7863,10.7863 10.786273,10.786273 0 0 1 -10.7863,10.7863 10.786273,10.786273 0 0 1 -10.7863,-10.7863 z"
       id="path4388" />
    <path
       inkscape:connector-curvature="0"
       style="fill:#000000;fill-opacity:0;stroke:#000000;stroke-width:0.87924391;stroke-miterlimit:4;stroke-dasharray:none;stroke-opacity:1"
       d="m 1508.0954,1631.2505 a 10.810378,10.810378 0 0 1 10.8104,-10.8104 10.810378,10.810378 0 0 1 10.8104,10.8104 10.810378,10.810378 0 0 1 -10.8104,10.8104 10.810378,10.810378 0 0 1 -10.8104,-10.8104 z"
       id="path4390" />
  </g>
</svg>
