<?xml version="1.0" encoding="UTF-8" standalone="no"?>
<!-- Created with Inkscape (http://www.inkscape.org/) -->

<svg
   xmlns:dc="http://purl.org/dc/elements/1.1/"
   xmlns:cc="http://creativecommons.org/ns#"
   xmlns:rdf="http://www.w3.org/1999/02/22-rdf-syntax-ns#"
   xmlns:svg="http://www.w3.org/2000/svg"
   xmlns="http://www.w3.org/2000/svg"
   xmlns:sodipodi="http://sodipodi.sourceforge.net/DTD/sodipodi-0.dtd"
   xmlns:inkscape="http://www.inkscape.org/namespaces/inkscape"
   width="4in"
   height="4in"
   viewBox="0 0 360.00001 360.00001"
   id="svg5919"
   version="1.1"
   inkscape:version="0.91 r13725"
   sodipodi:docname="T shape.svg">
  <defs
     id="defs5921" />
  <sodipodi:namedview
     id="base"
     pagecolor="#ffffff"
     bordercolor="#666666"
     borderopacity="1.0"
     inkscape:pageopacity="0.0"
     inkscape:pageshadow="2"
     inkscape:zoom="1.4"
     inkscape:cx="129.28571"
     inkscape:cy="205.71429"
     inkscape:document-units="px"
     inkscape:current-layer="layer1"
     showgrid="false"
     inkscape:window-width="1280"
     inkscape:window-height="751"
     inkscape:window-x="0"
     inkscape:window-y="1"
     inkscape:window-maximized="1"
     units="in" />
  <metadata
     id="metadata5924">
    <rdf:RDF>
      <cc:Work
         rdf:about="">
        <dc:format>image/svg+xml</dc:format>
        <dc:type
           rdf:resource="http://purl.org/dc/dcmitype/StillImage" />
        <dc:title></dc:title>
      </cc:Work>
    </rdf:RDF>
  </metadata>
  <g
     inkscape:label="Layer 1"
     inkscape:groupmode="layer"
     id="layer1"
     transform="translate(0,-692.36212)">
    <path
       style="fill:#000000;fill-opacity:0;stroke:#ff0000;stroke-width:0.79605663;stroke-miterlimit:4;stroke-dasharray:none;stroke-opacity:1"
       d="m 0.3984375,691.95898 0,360.00582 66.7031245,0 0,-146.5566 293.183598,0 0,-66.09179 -293.183598,0 0,-147.35743 -66.7031245,0 z"
       id="rect6486"
       inkscape:connector-curvature="0" />
    <path
       style="fill:#000000;fill-opacity:0;stroke:#ff0000;stroke-width:1.07016051;stroke-miterlimit:4;stroke-dasharray:none;stroke-opacity:1"
       d="M 50.089918,872.36218 A 10.714919,10.71492 0 0 1 39.374999,883.0771 10.714919,10.71492 0 0 1 28.66008,872.36218 10.714919,10.71492 0 0 1 39.374999,861.64726 10.714919,10.71492 0 0 1 50.089918,872.36218 Z"
       id="path6493"
       inkscape:connector-curvature="0" />
    <path
       style="fill:#000000;fill-opacity:0;stroke:#ff0000;stroke-width:0.84179449;stroke-miterlimit:4;stroke-dasharray:none;stroke-opacity:1"
       d="m 202.0791,872.94116 a 10.829103,10.829103 0 0 1 -10.8291,10.82911 10.829103,10.829103 0 0 1 -10.8291,-10.82911 10.829103,10.829103 0 0 1 10.8291,-10.8291 10.829103,10.829103 0 0 1 10.8291,10.8291 z"
       id="path6567"
       inkscape:connector-curvature="0" />
    <path
       style="fill:#000000;fill-opacity:0;stroke:#ff0000;stroke-width:0.79782397;stroke-miterlimit:4;stroke-dasharray:none;stroke-opacity:1"
       d="M 337.10109,872.36218 A 10.851088,10.851088 0 0 1 326.25,883.21327 10.851088,10.851088 0 0 1 315.39891,872.36218 10.851088,10.851088 0 0 1 326.25,861.5111 a 10.851088,10.851088 0 0 1 10.85109,10.85108 z"
       id="path6569"
       inkscape:connector-curvature="0" />
    <path
       style="fill:#000000;fill-opacity:0;stroke:#ff0000;stroke-width:0.606103;stroke-miterlimit:4;stroke-dasharray:none;stroke-opacity:1"
       d="M 44.696949,726.11218 A 10.946949,10.946948 0 0 1 33.75,737.05913 10.946949,10.946948 0 0 1 22.803051,726.11218 10.946949,10.946948 0 0 1 33.75,715.16523 10.946949,10.946948 0 0 1 44.696949,726.11218 Z"
       id="path6571"
       inkscape:connector-curvature="0" />
    <path
       style="fill:#000000;fill-opacity:0;stroke:#ff0000;stroke-width:1.73515296;stroke-miterlimit:4;stroke-dasharray:none;stroke-opacity:1"
       d="M 44.132423,1018.6122 A 10.382423,10.382423 0 0 1 33.75,1028.9946 10.382423,10.382423 0 0 1 23.367577,1018.6122 10.382423,10.382423 0 0 1 33.75,1008.2298 a 10.382423,10.382423 0 0 1 10.382423,10.3824 z"
       id="path6573"
       inkscape:connector-curvature="0" />
  </g>
</svg>
